<svg version="1.2" xmlns="http://www.w3.org/2000/svg" viewBox="0 0 109 109" width="109" height="109">
	<style>
		.s0 { fill: #777777 } 
	</style>
	<path id="  PRZEWIŃ W DÓŁ    PRZEWIŃ W DÓŁ" class="s0" aria-label="PRZEWIŃ NIŻEJ   PRZEWIŃ NIŻEJ   PRZEWIŃ NIŻEJ"  d="m55.7 11.1l-1.6-0.2 0.6-9 2.4 0.2q0.9 0 1.6 0.4 0.8 0.3 1.2 1 0.4 0.7 0.3 2-0.1 0.9-0.5 1.6-0.4 0.8-1.1 1.2-0.8 0.5-1.9 0.4l-0.8-0.1zm1.2-7.6l-0.7-0.1-0.2 3.9 0.6 0.1q0.9 0.1 1.4-0.4 0.4-0.5 0.5-1.5 0-1-0.3-1.5-0.4-0.5-1.3-0.5zm8.4 5.9l1.5 3.6-1.9-0.4-1.5-3.7-0.8 3.1-1.6-0.3 2.1-8.8 2.4 0.5q0.9 0.2 1.6 0.7 0.6 0.4 0.9 1.1 0.2 0.7 0 1.8-0.2 0.5-0.5 1.1-0.3 0.6-0.9 1-0.5 0.3-1.3 0.3zm-0.9-4.9l-0.8 3.6 0.6 0.1q0.6 0.2 1 0 0.4-0.2 0.7-0.6 0.3-0.4 0.4-0.9 0.2-0.8 0-1.3-0.3-0.5-1.3-0.8zm8.3 11.1l-5.3-2.3 6.2-5.7-2.9-1.2 0.5-1.3 5.2 2.2-6.2 5.7 3.1 1.3zm6.3 3.5l-4.2-2.6 4.8-7.8 4 2.5-0.8 1.2-2.6-1.6-1.1 1.8 2.1 1.3-0.8 1.2-2-1.3-1.4 2.3 2.8 1.7zm5.4 5.3l-0.2-0.2 2-5.2-5 2.4-0.2-0.2 4-8.7 1.3 1.2-2.5 5 5-2.6 0.1 0.1-2.1 5.2 4.6-2.9 1.3 1.2zm4.2 4l-1-1.2 7.1-5.7 1 1.3zm3.9 7.4v-0.1l2.1-6.2 0.2-0.6-1 0.7-3.5 2-0.8-1.4 8-4.6v0.1l-2.2 6.2-0.2 0.7 1-0.7 3.6-2.1 0.8 1.3zm7.3-7.4l-0.6-1.1 2.7-0.1 0.8 1.4zm-4.1 17.9v-0.2l3.6-5.4 0.4-0.5-1.2 0.4-3.9 1-0.4-1.5 8.9-2.5v0.2l-3.7 5.4-0.4 0.6 1.2-0.4 4-1.1 0.4 1.5zm0.6 3.5l-0.3-1.6 9-1.2 0.2 1.6zm0.8 7.2l-0.1-5.8 7.7 3.4v-3.1h1.4v5.5l-7.7-3.4 0.1 3.4zm9.9-1.9l-0.1-1.8h1.8v1.8zm-10.8 8.5l0.7-4.9 9 1.3-0.7 4.6-1.4-0.2 0.4-3-2.1-0.3-0.3 2.4-1.4-0.2 0.4-2.4-2.7-0.4-0.5 3.3zm-0.7 2.2q0-0.3 0.2-0.6 0.1-0.3 0.3-0.5 0.2-0.3 0.3-0.4l1.3 1q-0.2 0.1-0.4 0.3-0.2 0.2-0.3 0.5-0.1 0.2-0.1 0.5 0 0.2 0.2 0.5 0.3 0.2 0.9 0.4l6.2 1.8-0.5 1.6-6.1-1.8q-0.7-0.2-1.3-0.6-0.6-0.4-0.8-1.1-0.2-0.7 0.1-1.6zm-4.9 12.5l0.9-1.3 7.5 5-1.3 2q-0.5 0.7-1.2 1.2-0.6 0.5-1.4 0.5-0.9-0.1-1.9-0.7-0.7-0.5-1.2-1.2-0.5-0.8-0.5-1.6 0-0.9 0.6-1.9l0.5-0.6zm6.1 4.8l0.3-0.5-3.3-2.2-0.3 0.6q-0.5 0.7-0.3 1.3 0.2 0.6 1 1.2 0.8 0.5 1.4 0.5 0.6-0.1 1.2-0.9zm-9.5 4.2l-3.9-0.4 1.4-1.5 3.9 0.6-2.3-2.3 1.1-1.2 6.6 6.2-1.7 1.8q-0.6 0.7-1.3 1-0.7 0.4-1.5 0.3-0.7-0.2-1.5-0.9-0.4-0.4-0.8-1-0.3-0.5-0.3-1.2-0.1-0.7 0.3-1.4zm4.7 1.7l-2.7-2.5-0.4 0.5q-0.4 0.4-0.5 0.9 0 0.5 0.2 0.9 0.1 0.4 0.5 0.8 0.7 0.6 1.2 0.6 0.6 0 1.3-0.7zm-13.8 1.9l4.7-3.6 1.8 8.3 2.5-2 0.9 1.2-4.4 3.4-1.9-8.3-2.7 2.1zm-6.3 3.3l4.3-2.4 4.4 8-4.1 2.2-0.7-1.2 2.7-1.5-1-1.9-2.2 1.2-0.7-1.2 2.2-1.2-1.3-2.3-2.9 1.6zm-6.9 2.6l0.2-0.1 3.6 4.3 0.4-5.5 0.2-0.1 5.6 7.7-1.7 0.6-3.1-4.6-0.1 5.6-0.3 0.1-3.4-4.4 0.2 5.4-1.6 0.5zm-5.6 1l1.6-0.2 1.4 9-1.7 0.2zm-8.7 0.2h0.1l4.4 4.9 0.4 0.5-0.1-1.2-0.1-4.1h1.6l0.1 9.2h-0.1l-4.3-4.9-0.5-0.6 0.1 1.2v4.2h-1.5zm2.8 10.1h1.3l-1.3 2.4h-1.5zm-13.6-12.3h0.1l2.9 5.9 0.3 0.6 0.2-1.2 1-3.9 1.6 0.4-2.3 8.9h-0.2l-2.8-5.9-0.3-0.7-0.3 1.2-1 4-1.5-0.3zm-4.4-1.3l1.5 0.6-3.4 8.4-1.6-0.7zm-5.9-3.4l5.1 2.9-6.9 4.9 2.8 1.6-0.7 1.2-4.9-2.7 6.9-5-3-1.6zm-3.3 9.4l1.5 0.9-0.9 1.5-1.5-0.8zm-1.9-13.6l3.9 3.1-5.7 7.1-3.6-2.9 0.9-1.1 2.4 1.9 1.3-1.7-1.9-1.5 0.8-1 1.9 1.5 1.7-2.1-2.6-2.1zm-1.2-1.8q0.1 0.2 0.3 0.4 0.2 0.3 0.3 0.6 0.1 0.3 0.2 0.5l-1.6 0.6q0.1-0.3 0-0.6-0.1-0.3-0.2-0.4-0.2-0.2-0.4-0.4-0.3-0.1-0.6 0-0.3 0.1-0.7 0.5l-4.7 4.5-1.2-1.2 4.6-4.4q0.6-0.6 1.2-0.9 0.7-0.2 1.4-0.1 0.7 0.2 1.4 0.9zm-8.3-10.8l0.7 1.5-8.1 3.9-1.1-2.1q-0.4-0.8-0.5-1.6-0.1-0.8 0.4-1.5 0.4-0.7 1.5-1.3 0.8-0.4 1.7-0.4 0.8-0.1 1.6 0.4 0.7 0.4 1.2 1.4l0.4 0.7zm-7.3 2.9l0.3 0.6 3.6-1.8-0.3-0.6q-0.4-0.8-1-0.9-0.7-0.2-1.6 0.3-0.9 0.4-1.1 0.9-0.3 0.6 0.1 1.5zm1.1-10.3l2.4-3.1 0.6 1.9-2.5 3.1 3.1-0.9 0.5 1.6-8.7 2.6-0.7-2.4q-0.3-0.9-0.2-1.7 0-0.7 0.5-1.3 0.5-0.6 1.5-0.9 0.6-0.2 1.3-0.2 0.6 0 1.2 0.3 0.6 0.3 1 1zm-3.8 3.2l3.5-1-0.2-0.7q-0.2-0.5-0.5-0.8-0.4-0.3-0.9-0.4-0.5 0-0.9 0.1-0.9 0.3-1.2 0.8-0.3 0.5 0 1.4zm5.4-12.9l0.8 5.8-8.1-2.6 0.4 3.1-1.4 0.2-0.7-5.5 8.1 2.5-0.5-3.3zm0-6.6l-0.2 5-9-0.2 0.1-4.7h1.4l-0.1 3.1h2.2v-2.4h1.4l-0.1 2.5h2.7l0.1-3.3zm1.4-7.8v0.2l-5.5 1 4.6 3.1v0.2l-9.5 1 0.3-1.7 5.5-0.4-4.7-3v-0.2l5.5-0.7-4.8-2.6 0.4-1.7zm1.4-5.4l-0.6 1.5-8.4-3.3 0.6-1.6zm4.8-7.3v0.1l-6.5 1.3-0.6 0.1 1.1 0.5 3.5 2-0.8 1.4-8-4.6 0.1-0.1 6.4-1.2 0.8-0.1-1.1-0.5-3.7-2.1 0.8-1.4zm-10.1-2.6l-0.6 1.1-1.5-2.3 0.8-1.4zm16.6-5.5l-0.1 0.1-6.5-0.4h-0.7l1 0.8 2.9 2.8-1.1 1.1-6.7-6.4 0.1-0.1 6.6 0.4 0.7 0.1-0.9-0.8-3-2.9 1.1-1.1zm3.8-2.5l-1.3 1-5.6-7.2 1.4-1zm5.2-3.9l-5 3-0.9-8.4-2.7 1.6-0.7-1.2 4.8-2.8 0.9 8.4 2.8-1.8zm-6.5-7.6l-1.5 0.9-0.9-1.5 1.5-0.9zm12.8 5.2l-4.6 1.9-3.4-8.4 4.3-1.8 0.5 1.3-2.8 1.2 0.8 1.9 2.2-0.9 0.6 1.3-2.3 0.9 1 2.5 3.1-1.3zm3-0.4q-0.2 0-0.6 0.1-0.3 0-0.6 0-0.3-0.1-0.5-0.1l0.2-1.7q0.3 0.2 0.5 0.3 0.3 0.1 0.6 0 0.2-0.1 0.4-0.2 0.3-0.1 0.3-0.4 0.1-0.3 0-0.9l-1.6-6.3 1.6-0.5 1.6 6.2q0.2 0.8 0.1 1.5-0.1 0.7-0.6 1.2-0.4 0.5-1.4 0.8z"/>
</svg>